<svg width="17" height="16" viewBox="0 0 17 16" fill="none" xmlns="http://www.w3.org/2000/svg">
<path d="M10.5 2.32812C11.5097 2.32812 12.3281 1.50964 12.3281 0.5H13.1719C13.1719 1.50964 13.9903 2.32812 15 2.32812V3.17188C13.9903 3.17188 13.1719 3.99036 13.1719 5H12.3281C12.3281 3.99036 11.5097 3.17188 10.5 3.17188V2.32812ZM0.75 7.25C3.23528 7.25 5.25 5.23528 5.25 2.75H6.75C6.75 5.23528 8.76472 7.25 11.25 7.25V8.75C8.76472 8.75 6.75 10.7647 6.75 13.25H5.25C5.25 10.7647 3.23528 8.75 0.75 8.75V7.25ZM3.65701 8C4.64038 8.5457 5.45432 9.3596 6 10.343C6.54568 9.3596 7.35962 8.5457 8.343 8C7.35962 7.4543 6.54568 6.6404 6 5.65701C5.45432 6.6404 4.64038 7.4543 3.65701 8ZM12.9375 9.5C12.9375 10.8462 11.8462 11.9375 10.5 11.9375V13.0625C11.8462 13.0625 12.9375 14.1538 12.9375 15.5H14.0625C14.0625 14.1538 15.1538 13.0625 16.5 13.0625V11.9375C15.1538 11.9375 14.0625 10.8462 14.0625 9.5H12.9375Z" fill="white"/>
<path d="M10.5 2.32812C11.5097 2.32812 12.3281 1.50964 12.3281 0.5H13.1719C13.1719 1.50964 13.9903 2.32812 15 2.32812V3.17188C13.9903 3.17188 13.1719 3.99036 13.1719 5H12.3281C12.3281 3.99036 11.5097 3.17188 10.5 3.17188V2.32812ZM0.75 7.25C3.23528 7.25 5.25 5.23528 5.25 2.75H6.75C6.75 5.23528 8.76472 7.25 11.25 7.25V8.75C8.76472 8.75 6.75 10.7647 6.75 13.25H5.25C5.25 10.7647 3.23528 8.75 0.75 8.75V7.25ZM3.65701 8C4.64038 8.5457 5.45432 9.3596 6 10.343C6.54568 9.3596 7.35962 8.5457 8.343 8C7.35962 7.4543 6.54568 6.6404 6 5.65701C5.45432 6.6404 4.64038 7.4543 3.65701 8ZM12.9375 9.5C12.9375 10.8462 11.8462 11.9375 10.5 11.9375V13.0625C11.8462 13.0625 12.9375 14.1538 12.9375 15.5H14.0625C14.0625 14.1538 15.1538 13.0625 16.5 13.0625V11.9375C15.1538 11.9375 14.0625 10.8462 14.0625 9.5H12.9375Z" fill="url(#paint0_linear_483_399)"/>
<defs>
<linearGradient id="paint0_linear_483_399" x1="0.75" y1="8" x2="16.5" y2="8" gradientUnits="userSpaceOnUse">
<stop stop-color="#5433FF"/>
<stop offset="0.5" stop-color="#AE91FF"/>
<stop offset="1" stop-color="#F0EAFF"/>
</linearGradient>
</defs>
</svg>
