<svg width="17" height="16" viewBox="0 0 17 16" fill="none" xmlns="http://www.w3.org/2000/svg">
<path d="M10.5 2.50732C11.5097 2.50732 12.3281 1.68884 12.3281 0.679199H13.1719C13.1719 1.68884 13.9903 2.50732 15 2.50732V3.35107C13.9903 3.35107 13.1719 4.16956 13.1719 5.1792H12.3281C12.3281 4.16956 11.5097 3.35107 10.5 3.35107V2.50732ZM0.75 7.4292C3.23528 7.4292 5.25 5.41448 5.25 2.9292H6.75C6.75 5.41448 8.76472 7.4292 11.25 7.4292V8.9292C8.76472 8.9292 6.75 10.9439 6.75 13.4292H5.25C5.25 10.9439 3.23528 8.9292 0.75 8.9292V7.4292ZM3.65701 8.1792C4.64038 8.7249 5.45432 9.5388 6 10.5222C6.54568 9.5388 7.35962 8.7249 8.343 8.1792C7.35962 7.6335 6.54568 6.8196 6 5.83621C5.45432 6.8196 4.64038 7.6335 3.65701 8.1792ZM12.9375 9.6792C12.9375 11.0254 11.8462 12.1167 10.5 12.1167V13.2417C11.8462 13.2417 12.9375 14.333 12.9375 15.6792H14.0625C14.0625 14.333 15.1538 13.2417 16.5 13.2417V12.1167C15.1538 12.1167 14.0625 11.0254 14.0625 9.6792H12.9375Z" fill="white"/>
<path d="M10.5 2.50732C11.5097 2.50732 12.3281 1.68884 12.3281 0.679199H13.1719C13.1719 1.68884 13.9903 2.50732 15 2.50732V3.35107C13.9903 3.35107 13.1719 4.16956 13.1719 5.1792H12.3281C12.3281 4.16956 11.5097 3.35107 10.5 3.35107V2.50732ZM0.75 7.4292C3.23528 7.4292 5.25 5.41448 5.25 2.9292H6.75C6.75 5.41448 8.76472 7.4292 11.25 7.4292V8.9292C8.76472 8.9292 6.75 10.9439 6.75 13.4292H5.25C5.25 10.9439 3.23528 8.9292 0.75 8.9292V7.4292ZM3.65701 8.1792C4.64038 8.7249 5.45432 9.5388 6 10.5222C6.54568 9.5388 7.35962 8.7249 8.343 8.1792C7.35962 7.6335 6.54568 6.8196 6 5.83621C5.45432 6.8196 4.64038 7.6335 3.65701 8.1792ZM12.9375 9.6792C12.9375 11.0254 11.8462 12.1167 10.5 12.1167V13.2417C11.8462 13.2417 12.9375 14.333 12.9375 15.6792H14.0625C14.0625 14.333 15.1538 13.2417 16.5 13.2417V12.1167C15.1538 12.1167 14.0625 11.0254 14.0625 9.6792H12.9375Z" fill="#2900FF"/>
</svg>
