<svg width="48" height="48" viewBox="0 0 48 48" fill="none" xmlns="http://www.w3.org/2000/svg">
<rect x="0.978516" y="1.5022" width="45.4026" height="45.4026" rx="9.99791" fill="white" fill-opacity="0.1"/>
<rect x="0.621447" y="1.14513" width="46.1167" height="46.1167" rx="10.355" stroke="#C3C3C3" stroke-opacity="0.59" stroke-width="0.714136"/>
<path d="M20.207 27.5802C26.0268 27.5802 30.9393 28.5052 30.9393 32.0818C30.9393 35.6557 25.9954 36.5499 20.207 36.5499L19.8116 36.5484C14.1664 36.5065 9.47461 35.5436 9.47461 32.0483C9.47461 28.4744 14.4186 27.5802 20.207 27.5802ZM29.2907 25.4269C31.504 25.385 33.8845 25.683 34.7633 25.8929C36.6266 26.2497 37.8511 26.976 38.3584 28.0353C38.7885 28.9029 38.7885 29.9104 38.3584 30.7779C37.5825 32.418 35.0791 32.9455 34.106 33.0812C33.9046 33.1092 33.7431 32.9413 33.7645 32.7426C34.2618 28.1976 30.308 26.0426 29.285 25.5473C29.2421 25.5235 29.2321 25.4899 29.2364 25.4675C29.2392 25.4535 29.2578 25.4311 29.2907 25.4269ZM20.207 10.2642C24.1493 10.2642 27.3085 13.3581 27.3085 17.2188C27.3085 21.0795 24.1493 24.1734 20.207 24.1734C16.2661 24.1734 13.1054 21.0795 13.1054 17.2188C13.1054 13.3581 16.2661 10.2642 20.207 10.2642ZM29.6765 11.4257C33.4845 11.4257 36.4737 14.9324 35.4549 18.8379C34.7676 21.4701 32.2799 23.2178 29.5079 23.1465C29.2292 23.1409 28.9563 23.1143 28.6905 23.0709C28.4991 23.0373 28.4019 22.826 28.5119 22.6693C29.5693 21.1454 30.1723 19.3109 30.1723 17.3449C30.1723 15.2907 29.515 13.3778 28.3705 11.8064C28.3333 11.7574 28.3062 11.6832 28.3433 11.6258C28.3719 11.5811 28.4291 11.5559 28.4819 11.5447C28.8677 11.4677 29.2635 11.4257 29.6765 11.4257Z" fill="#A6B3FF"/>
<path d="M20.207 27.5802C26.0268 27.5802 30.9393 28.5052 30.9393 32.0818C30.9393 35.6557 25.9954 36.5499 20.207 36.5499L19.8116 36.5484C14.1664 36.5065 9.47461 35.5436 9.47461 32.0483C9.47461 28.4744 14.4186 27.5802 20.207 27.5802ZM29.2907 25.4269C31.504 25.385 33.8845 25.683 34.7633 25.8929C36.6266 26.2497 37.8511 26.976 38.3584 28.0353C38.7885 28.9029 38.7885 29.9104 38.3584 30.7779C37.5825 32.418 35.0791 32.9455 34.106 33.0812C33.9046 33.1092 33.7431 32.9413 33.7645 32.7426C34.2618 28.1976 30.308 26.0426 29.285 25.5473C29.2421 25.5235 29.2321 25.4899 29.2364 25.4675C29.2392 25.4535 29.2578 25.4311 29.2907 25.4269ZM20.207 10.2642C24.1493 10.2642 27.3085 13.3581 27.3085 17.2188C27.3085 21.0795 24.1493 24.1734 20.207 24.1734C16.2661 24.1734 13.1054 21.0795 13.1054 17.2188C13.1054 13.3581 16.2661 10.2642 20.207 10.2642ZM29.6765 11.4257C33.4845 11.4257 36.4737 14.9324 35.4549 18.8379C34.7676 21.4701 32.2799 23.2178 29.5079 23.1465C29.2292 23.1409 28.9563 23.1143 28.6905 23.0709C28.4991 23.0373 28.4019 22.826 28.5119 22.6693C29.5693 21.1454 30.1723 19.3109 30.1723 17.3449C30.1723 15.2907 29.515 13.3778 28.3705 11.8064C28.3333 11.7574 28.3062 11.6832 28.3433 11.6258C28.3719 11.5811 28.4291 11.5559 28.4819 11.5447C28.8677 11.4677 29.2635 11.4257 29.6765 11.4257Z" fill="url(#paint0_linear_425_1512)"/>
<defs>
<linearGradient id="paint0_linear_425_1512" x1="9.47461" y1="23.407" x2="38.681" y2="23.407" gradientUnits="userSpaceOnUse">
<stop stop-color="#5433FF"/>
<stop offset="0.5" stop-color="#AE91FF"/>
<stop offset="1" stop-color="#F0EAFF"/>
</linearGradient>
</defs>
</svg>
