<svg width="95" height="16" viewBox="0 0 95 16" fill="none" xmlns="http://www.w3.org/2000/svg">
<g clip-path="url(#clip0_395_864)">
<path d="M5.80055 0.555851C2.90548 0.555851 0.550171 2.91114 0.550171 5.8062V10.1934C0.550171 13.0885 2.90548 15.4438 5.80055 15.4438H10.1878C13.0828 15.4438 15.4382 13.0885 15.4382 10.1934V8.24625L13.102 9.63327V10.1934C13.102 11.8003 11.7947 13.1076 10.1878 13.1076H5.80056C4.19369 13.1076 2.88638 11.8003 2.88638 10.1934V5.8062C2.88638 4.19932 4.19369 2.89206 5.80056 2.89206H10.1878C11.2444 2.89206 12.2288 3.48046 12.7389 4.40201L7.92702 7.31864L6.58737 5.10848L6.07177 5.421C6.07211 5.42156 6.07253 5.42208 6.07288 5.42264C6.22647 5.68021 6.13607 6.01717 5.87096 6.17526C5.60768 6.33226 5.27128 6.25358 5.11623 6.00018L4.58951 6.31943L7.14008 10.5275L15.4305 5.5024L15.4226 5.39988C15.3713 4.7288 15.1933 4.08594 14.8965 3.48545L14.8999 3.48335L14.7426 3.18754L14.74 3.18911C13.8027 1.56034 12.0746 0.555847 10.1878 0.555847L5.80055 0.555851Z" fill="#375DFB"/>
</g>
<path d="M29.072 12.064V14H21.184V2.64H28.928V4.576H23.392V7.312H28.176V9.104H23.392V12.064H29.072ZM32.4608 14L29.3728 5.616H31.5968L33.7088 12.048L35.8368 5.616H37.8688L34.7968 14H32.4608ZM42.3684 14.16C41.6964 14.16 41.0884 14.048 40.5444 13.824C40.0004 13.5893 39.5364 13.2747 39.1524 12.88C38.7684 12.4747 38.4697 12.016 38.2564 11.504C38.0537 10.9813 37.9524 10.432 37.9524 9.856C37.9524 9.056 38.1284 8.32533 38.4804 7.664C38.843 7.00267 39.355 6.47467 40.0164 6.08C40.6884 5.67467 41.4777 5.472 42.3844 5.472C43.3017 5.472 44.0857 5.67467 44.7364 6.08C45.387 6.47467 45.883 7.00267 46.2244 7.664C46.5764 8.31467 46.7524 9.01867 46.7524 9.776C46.7524 9.904 46.747 10.0373 46.7364 10.176C46.7257 10.304 46.715 10.4107 46.7044 10.496H40.2244C40.267 10.9227 40.3897 11.296 40.5924 11.616C40.8057 11.936 41.0724 12.1813 41.3924 12.352C41.723 12.512 42.075 12.592 42.4484 12.592C42.875 12.592 43.275 12.4907 43.6484 12.288C44.0324 12.0747 44.2937 11.7973 44.4324 11.456L46.2724 11.968C46.0697 12.3947 45.7764 12.7733 45.3924 13.104C45.019 13.4347 44.5764 13.696 44.0644 13.888C43.5524 14.0693 42.987 14.16 42.3684 14.16ZM40.1764 9.136H44.5604C44.5177 8.70933 44.395 8.34133 44.1924 8.032C44.0004 7.712 43.7444 7.46667 43.4244 7.296C43.1044 7.11467 42.747 7.024 42.3524 7.024C41.9684 7.024 41.6164 7.11467 41.2964 7.296C40.987 7.46667 40.731 7.712 40.5284 8.032C40.3364 8.34133 40.219 8.70933 40.1764 9.136ZM55.6105 14H53.4665V9.296C53.4665 8.624 53.3492 8.13333 53.1145 7.824C52.8798 7.51467 52.5545 7.36 52.1385 7.36C51.8505 7.36 51.5572 7.43467 51.2585 7.584C50.9705 7.73333 50.7092 7.94133 50.4745 8.208C50.2398 8.464 50.0692 8.76267 49.9625 9.104V14H47.8185V5.616H49.7545V7.168C49.9678 6.80533 50.2398 6.50133 50.5705 6.256C50.9012 6 51.2798 5.808 51.7065 5.68C52.1438 5.54133 52.6025 5.472 53.0825 5.472C53.6052 5.472 54.0318 5.568 54.3625 5.76C54.7038 5.94133 54.9598 6.192 55.1305 6.512C55.3118 6.82133 55.4345 7.17333 55.4985 7.568C55.5732 7.96267 55.6105 8.36267 55.6105 8.768V14ZM62.2119 13.568C62.0305 13.6427 61.8119 13.728 61.5559 13.824C61.2999 13.92 61.0225 13.9947 60.7239 14.048C60.4359 14.112 60.1425 14.144 59.8439 14.144C59.4492 14.144 59.0865 14.0747 58.7559 13.936C58.4252 13.7973 58.1585 13.5787 57.9559 13.28C57.7639 12.9707 57.6679 12.5707 57.6679 12.08V7.264H56.5639V5.616H57.6679V2.896H59.8119V5.616H61.5719V7.264H59.8119V11.36C59.8225 11.648 59.9025 11.856 60.0519 11.984C60.2012 12.112 60.3879 12.176 60.6119 12.176C60.8359 12.176 61.0545 12.1387 61.2679 12.064C61.4812 11.9893 61.6519 11.9253 61.7799 11.872L62.2119 13.568ZM72.8485 2.64V14H70.6565V9.152H65.5045V14H63.2965V2.64H65.5045V7.232H70.6565V2.64H72.8485ZM78.5178 14.16C77.8458 14.16 77.2378 14.048 76.6938 13.824C76.1498 13.5893 75.6858 13.2747 75.3018 12.88C74.9178 12.4747 74.6191 12.016 74.4058 11.504C74.2031 10.9813 74.1018 10.432 74.1018 9.856C74.1018 9.056 74.2778 8.32533 74.6298 7.664C74.9924 7.00267 75.5044 6.47467 76.1658 6.08C76.8378 5.67467 77.6271 5.472 78.5338 5.472C79.4511 5.472 80.2351 5.67467 80.8858 6.08C81.5364 6.47467 82.0324 7.00267 82.3738 7.664C82.7258 8.31467 82.9018 9.01867 82.9018 9.776C82.9018 9.904 82.8964 10.0373 82.8858 10.176C82.8751 10.304 82.8644 10.4107 82.8538 10.496H76.3738C76.4164 10.9227 76.5391 11.296 76.7418 11.616C76.9551 11.936 77.2218 12.1813 77.5418 12.352C77.8724 12.512 78.2244 12.592 78.5978 12.592C79.0244 12.592 79.4244 12.4907 79.7978 12.288C80.1818 12.0747 80.4431 11.7973 80.5818 11.456L82.4218 11.968C82.2191 12.3947 81.9258 12.7733 81.5418 13.104C81.1684 13.4347 80.7258 13.696 80.2138 13.888C79.7018 14.0693 79.1364 14.16 78.5178 14.16ZM76.3258 9.136H80.7098C80.6671 8.70933 80.5444 8.34133 80.3418 8.032C80.1498 7.712 79.8938 7.46667 79.5738 7.296C79.2538 7.11467 78.8964 7.024 78.5018 7.024C78.1178 7.024 77.7658 7.11467 77.4458 7.296C77.1364 7.46667 76.8804 7.712 76.6778 8.032C76.4858 8.34133 76.3684 8.70933 76.3258 9.136ZM85.0314 5.616L86.7914 8.24L86.9194 8.528L87.0794 8.24L88.8234 5.616H91.0794L88.1674 9.792L91.1274 14H88.8714L87.0634 11.392L86.9194 11.12L86.7914 11.392L84.9994 14H82.7434L85.7034 9.84L82.7914 5.616H85.0314Z" fill="#010101"/>
<defs>
<clipPath id="clip0_395_864">
<rect width="16" height="16" fill="white"/>
</clipPath>
</defs>
</svg>
