<svg width="147" height="147" viewBox="0 0 147 147" fill="none" xmlns="http://www.w3.org/2000/svg">
<path d="M50.3501 6.26443C52.0088 6.26443 53.3534 4.91984 53.3534 3.26121C53.3534 1.60258 52.0088 0.257996 50.3501 0.257996C48.6915 0.257996 47.3469 1.60258 47.3469 3.26121C47.3469 4.91984 48.6915 6.26443 50.3501 6.26443Z" fill="black"/>
<path d="M65.0161 6.26443H62.0129C60.311 6.26443 59.0096 4.96303 59.0096 3.26121C59.0096 1.55939 60.311 0.257996 62.0129 0.257996H65.0161V6.26443Z" fill="black"/>
<path d="M67.8448 6.26443H64.8416V0.257996H67.8448C69.5466 0.257996 70.848 1.55939 70.848 3.26121C70.848 4.96303 69.5466 6.26443 67.8448 6.26443Z" fill="black"/>
<path d="M97.0022 6.26443C98.6609 6.26443 100.005 4.91984 100.005 3.26121C100.005 1.60258 98.6609 0.257996 97.0022 0.257996C95.3436 0.257996 93.999 1.60258 93.999 3.26121C93.999 4.91984 95.3436 6.26443 97.0022 6.26443Z" fill="black"/>
<path d="M59.1855 12.096H53.1791V9.09282C53.1791 7.39099 54.4805 6.0896 56.1823 6.0896C57.8841 6.0896 59.1855 7.39099 59.1855 9.09282V12.096Z" fill="black"/>
<path d="M91.1709 12.096C92.8296 12.096 94.1742 10.7514 94.1742 9.09282C94.1742 7.43419 92.8296 6.0896 91.1709 6.0896C89.5123 6.0896 88.1677 7.43419 88.1677 9.09282C88.1677 10.7514 89.5123 12.096 91.1709 12.096Z" fill="black"/>
<path d="M59.1855 11.921H53.1791V17.9274H59.1855V11.921Z" fill="black"/>
<path d="M70.848 17.9274H64.8416V14.9242C64.8416 13.2224 66.1429 11.921 67.8448 11.921H70.848V17.9274Z" fill="black"/>
<path d="M76.6795 17.9274H70.6731V11.921H73.6763C75.3781 11.921 76.6795 13.2224 76.6795 14.9242V17.9274Z" fill="black"/>
<path d="M88.3425 17.9274H82.3361V14.9242C82.3361 13.2224 83.6375 11.921 85.3393 11.921C87.0411 11.921 88.3425 13.2224 88.3425 14.9242V17.9274Z" fill="black"/>
<path d="M97.0022 17.9274C98.6609 17.9274 100.005 16.5828 100.005 14.9242C100.005 13.2655 98.6609 11.921 97.0022 11.921C95.3436 11.921 93.999 13.2655 93.999 14.9242C93.999 16.5828 95.3436 17.9274 97.0022 17.9274Z" fill="black"/>
<path d="M59.1855 23.759H56.1823C54.4805 23.759 53.1791 22.4576 53.1791 20.7558V17.7526H59.1855V23.759Z" fill="black"/>
<path d="M65.0161 17.7526H59.0096V23.759H65.0161V17.7526Z" fill="black"/>
<path d="M70.848 17.7526H64.8416V23.759H70.848V17.7526Z" fill="black"/>
<path d="M76.6795 17.7526H70.6731V23.759H76.6795V17.7526Z" fill="black"/>
<path d="M82.5112 17.7526H76.5048V23.759H82.5112V17.7526Z" fill="black"/>
<path d="M85.3393 23.759H82.3361V17.7526H88.3425V20.7558C88.3425 22.4576 87.0411 23.759 85.3393 23.759Z" fill="black"/>
<path d="M53.3534 29.5906H47.3469V26.5874C47.3469 24.8856 48.6483 23.5842 50.3501 23.5842C52.052 23.5842 53.3534 24.8856 53.3534 26.5874V29.5906Z" fill="black"/>
<path d="M62.0129 29.5906C60.311 29.5906 59.0096 28.2892 59.0096 26.5874V23.5842H65.0161V26.5874C65.0161 28.2892 63.7147 29.5906 62.0129 29.5906Z" fill="black"/>
<path d="M76.6795 29.5906H73.6763C71.9745 29.5906 70.6731 28.2892 70.6731 26.5874V23.5842H76.6795V29.5906Z" fill="black"/>
<path d="M79.508 29.5906H76.5048V23.5842H82.5112V26.5874C82.5112 28.2892 81.2098 29.5906 79.508 29.5906Z" fill="black"/>
<path d="M53.3534 29.4154H47.3469V35.4218H53.3534V29.4154Z" fill="black"/>
<path d="M91.1709 35.4218C92.8296 35.4218 94.1742 34.0772 94.1742 32.4186C94.1742 30.76 92.8296 29.4154 91.1709 29.4154C89.5123 29.4154 88.1677 30.76 88.1677 32.4186C88.1677 34.0772 89.5123 35.4218 91.1709 35.4218Z" fill="black"/>
<path d="M50.3501 41.2536C48.6483 41.2536 47.3469 39.9522 47.3469 38.2503V35.2471H53.3534V38.2503C53.3534 39.9522 52.052 41.2536 50.3501 41.2536Z" fill="black"/>
<path d="M62.0129 41.2536C63.6715 41.2536 65.0161 39.909 65.0161 38.2503C65.0161 36.5917 63.6715 35.2471 62.0129 35.2471C60.3542 35.2471 59.0096 36.5917 59.0096 38.2503C59.0096 39.909 60.3542 41.2536 62.0129 41.2536Z" fill="black"/>
<path d="M76.6795 41.2536H70.6731V38.2503C70.6731 36.5485 71.9745 35.2471 73.6763 35.2471C75.3781 35.2471 76.6795 36.5485 76.6795 38.2503V41.2536Z" fill="black"/>
<path d="M88.3425 41.2536H82.3361V38.2503C82.3361 36.5485 83.6375 35.2471 85.3393 35.2471C87.0411 35.2471 88.3425 36.5485 88.3425 38.2503V41.2536Z" fill="black"/>
<path d="M97.0022 41.2536C98.6609 41.2536 100.005 39.909 100.005 38.2503C100.005 36.5917 98.6609 35.2471 97.0022 35.2471C95.3436 35.2471 93.999 36.5917 93.999 38.2503C93.999 39.909 95.3436 41.2536 97.0022 41.2536Z" fill="black"/>
<path d="M70.848 47.085H67.8448C66.1429 47.085 64.8416 45.7837 64.8416 44.0818C64.8416 42.38 66.1429 41.0786 67.8448 41.0786H70.848V47.085Z" fill="black"/>
<path d="M73.6763 47.085H70.6731V41.0786H76.6795V44.0818C76.6795 45.7837 75.3781 47.085 73.6763 47.085Z" fill="black"/>
<path d="M88.3425 47.085H85.3393C83.6375 47.085 82.3361 45.7837 82.3361 44.0818V41.0786H88.3425V47.085Z" fill="black"/>
<path d="M91.1709 47.085H88.1677V41.0786H91.1709C92.8728 41.0786 94.1742 42.38 94.1742 44.0818C94.1742 45.7837 92.8728 47.085 91.1709 47.085Z" fill="black"/>
<path d="M12.5332 52.9167H6.52673V49.9134C6.52673 48.2116 7.82813 46.9102 9.52995 46.9102H12.5332V52.9167Z" fill="black"/>
<path d="M18.3637 46.9102H12.3573V52.9167H18.3637V46.9102Z" fill="black"/>
<path d="M24.1964 46.9102H18.1899V52.9167H24.1964V46.9102Z" fill="black"/>
<path d="M30.028 46.9102H24.0216V52.9167H30.028V46.9102Z" fill="black"/>
<path d="M35.8591 46.9102H29.8527V52.9167H35.8591V46.9102Z" fill="black"/>
<path d="M41.6901 46.9102H35.6837V52.9167H41.6901V46.9102Z" fill="black"/>
<path d="M47.5218 52.9167H41.5154V46.9102H44.5186C46.2204 46.9102 47.5218 48.2116 47.5218 49.9134V52.9167Z" fill="black"/>
<path d="M65.0161 52.9167H59.0096V49.9134C59.0096 48.2116 60.311 46.9102 62.0129 46.9102C63.7147 46.9102 65.0161 48.2116 65.0161 49.9134V52.9167Z" fill="black"/>
<path d="M82.5112 52.9167H76.5048V49.9134C76.5048 48.2116 77.8062 46.9102 79.508 46.9102C81.2098 46.9102 82.5112 48.2116 82.5112 49.9134V52.9167Z" fill="black"/>
<path d="M100.005 52.9167H93.999V49.9134C93.999 48.2116 95.3004 46.9102 97.0022 46.9102C98.7041 46.9102 100.005 48.2116 100.005 49.9134V52.9167Z" fill="black"/>
<path d="M117.5 52.9167H111.494V49.9134C111.494 48.2116 112.795 46.9102 114.497 46.9102H117.5V52.9167Z" fill="black"/>
<path d="M120.328 52.9167H117.325V46.9102H120.328C122.03 46.9102 123.331 48.2116 123.331 49.9134C123.331 51.6153 122.03 52.9167 120.328 52.9167Z" fill="black"/>
<path d="M143.654 52.9167C145.313 52.9167 146.658 51.5721 146.658 49.9134C146.658 48.2548 145.313 46.9102 143.654 46.9102C141.996 46.9102 140.651 48.2548 140.651 49.9134C140.651 51.5721 141.996 52.9167 143.654 52.9167Z" fill="black"/>
<path d="M6.70175 58.7479H3.69853C1.99671 58.7479 0.695312 57.4465 0.695312 55.7447C0.695312 54.0428 1.99671 52.7415 3.69853 52.7415H6.70175V58.7479Z" fill="black"/>
<path d="M12.5332 52.7415H6.52673V58.7479H12.5332V52.7415Z" fill="black"/>
<path d="M15.3605 58.7479H12.3573V52.7415H18.3637V55.7447C18.3637 57.4465 17.0623 58.7479 15.3605 58.7479Z" fill="black"/>
<path d="M47.5218 58.7479H44.5186C42.8168 58.7479 41.5154 57.4465 41.5154 55.7447V52.7415H47.5218V58.7479Z" fill="black"/>
<path d="M53.3534 52.7415H47.3469V58.7479H53.3534V52.7415Z" fill="black"/>
<path d="M59.1855 52.7415H53.1791V58.7479H59.1855V52.7415Z" fill="black"/>
<path d="M62.0129 58.7479H59.0096V52.7415H65.0161V55.7447C65.0161 57.4465 63.7147 58.7479 62.0129 58.7479Z" fill="black"/>
<path d="M82.5112 52.7415H76.5048V58.7479H82.5112V52.7415Z" fill="black"/>
<path d="M100.005 52.7415H93.999V58.7479H100.005V52.7415Z" fill="black"/>
<path d="M105.837 58.7479H99.8304V52.7415H102.834C104.535 52.7415 105.837 54.0428 105.837 55.7447V58.7479Z" fill="black"/>
<path d="M117.5 52.7415H111.494V58.7479H117.5V52.7415Z" fill="black"/>
<path d="M140.826 58.7479H134.82V55.7447C134.82 54.0428 136.121 52.7415 137.823 52.7415C139.525 52.7415 140.826 54.0428 140.826 55.7447V58.7479Z" fill="black"/>
<path d="M12.5332 58.5729H6.52673V64.5794H12.5332V58.5729Z" fill="black"/>
<path d="M30.028 64.5794H27.0248C25.323 64.5794 24.0216 63.278 24.0216 61.5762C24.0216 59.8743 25.323 58.5729 27.0248 58.5729H30.028V64.5794Z" fill="black"/>
<path d="M35.8591 58.5729H29.8527V64.5794H35.8591V58.5729Z" fill="black"/>
<path d="M38.6869 64.5794H35.6837V58.5729H38.6869C40.3888 58.5729 41.6901 59.8743 41.6901 61.5762C41.6901 63.278 40.3888 64.5794 38.6869 64.5794Z" fill="black"/>
<path d="M53.3534 58.5729H47.3469V64.5794H53.3534V58.5729Z" fill="black"/>
<path d="M70.848 64.5794H64.8416V61.5762C64.8416 59.8743 66.1429 58.5729 67.8448 58.5729C69.5466 58.5729 70.848 59.8743 70.848 61.5762V64.5794Z" fill="black"/>
<path d="M82.5112 64.5794H79.508C77.8062 64.5794 76.5048 63.278 76.5048 61.5762V58.5729H82.5112V64.5794Z" fill="black"/>
<path d="M88.3425 58.5729H82.3361V64.5794H88.3425V58.5729Z" fill="black"/>
<path d="M94.1742 58.5729H88.1677V64.5794H94.1742V58.5729Z" fill="black"/>
<path d="M100.005 58.5729H93.999V64.5794H100.005V58.5729Z" fill="black"/>
<path d="M105.837 58.5729H99.8304V64.5794H105.837V58.5729Z" fill="black"/>
<path d="M111.668 58.5729H105.662V64.5794H111.668V58.5729Z" fill="black"/>
<path d="M117.5 58.5729H111.494V64.5794H117.5V58.5729Z" fill="black"/>
<path d="M126.16 64.5794C127.818 64.5794 129.163 63.2348 129.163 61.5762C129.163 59.9175 127.818 58.5729 126.16 58.5729C124.501 58.5729 123.156 59.9175 123.156 61.5762C123.156 63.2348 124.501 64.5794 126.16 64.5794Z" fill="black"/>
<path d="M140.826 64.5794H137.823C136.121 64.5794 134.82 63.278 134.82 61.5762V58.5729H140.826V64.5794Z" fill="black"/>
<path d="M146.658 64.5794H140.651V58.5729H143.654C145.356 58.5729 146.658 59.8743 146.658 61.5762V64.5794Z" fill="black"/>
<path d="M12.5332 70.4111H9.52995C7.82813 70.4111 6.52673 69.1097 6.52673 67.4079V64.4047H12.5332V70.4111Z" fill="black"/>
<path d="M18.3637 70.4111H12.3573V64.4047H15.3605C17.0623 64.4047 18.3637 65.7061 18.3637 67.4079V70.4111Z" fill="black"/>
<path d="M53.3534 64.4047H47.3469V70.4111H53.3534V64.4047Z" fill="black"/>
<path d="M67.8448 70.4111C66.1429 70.4111 64.8416 69.1097 64.8416 67.4079V64.4047H70.848V67.4079C70.848 69.1097 69.5466 70.4111 67.8448 70.4111Z" fill="black"/>
<path d="M88.3425 70.4111H85.3393C83.6375 70.4111 82.3361 69.1097 82.3361 67.4079V64.4047H88.3425V70.4111Z" fill="black"/>
<path d="M94.1742 64.4047H88.1677V70.4111H94.1742V64.4047Z" fill="black"/>
<path d="M97.0022 70.4111H93.999V64.4047H100.005V67.4079C100.005 69.1097 98.7041 70.4111 97.0022 70.4111Z" fill="black"/>
<path d="M114.497 70.4111C112.795 70.4111 111.494 69.1097 111.494 67.4079V64.4047H117.5V67.4079C117.5 69.1097 116.199 70.4111 114.497 70.4111Z" fill="black"/>
<path d="M146.658 64.4047H140.651V70.4111H146.658V64.4047Z" fill="black"/>
<path d="M18.3637 76.2422H15.3605C13.6587 76.2422 12.3573 74.9408 12.3573 73.239V70.2357H18.3637V76.2422Z" fill="black"/>
<path d="M24.1964 70.2357H18.1899V76.2422H24.1964V70.2357Z" fill="black"/>
<path d="M30.028 76.2422H24.0216V70.2357H27.0248C28.7266 70.2357 30.028 71.5371 30.028 73.239V76.2422Z" fill="black"/>
<path d="M38.6869 76.2422C40.3456 76.2422 41.6901 74.8976 41.6901 73.239C41.6901 71.5803 40.3456 70.2357 38.6869 70.2357C37.0283 70.2357 35.6837 71.5803 35.6837 73.239C35.6837 74.8976 37.0283 76.2422 38.6869 76.2422Z" fill="black"/>
<path d="M53.3534 70.2357H47.3469V76.2422H53.3534V70.2357Z" fill="black"/>
<path d="M59.1855 76.2422H53.1791V70.2357H56.1823C57.8841 70.2357 59.1855 71.5371 59.1855 73.239V76.2422Z" fill="black"/>
<path d="M91.1709 76.2422C89.4691 76.2422 88.1677 74.9408 88.1677 73.239V70.2357H94.1742V73.239C94.1742 74.9408 92.8728 76.2422 91.1709 76.2422Z" fill="black"/>
<path d="M105.837 76.2422H102.834C101.132 76.2422 99.8304 74.9408 99.8304 73.239C99.8304 71.5371 101.132 70.2357 102.834 70.2357H105.837V76.2422Z" fill="black"/>
<path d="M108.665 76.2422H105.662V70.2357H108.665C110.367 70.2357 111.668 71.5371 111.668 73.239C111.668 74.9408 110.367 76.2422 108.665 76.2422Z" fill="black"/>
<path d="M120.328 76.2422C121.987 76.2422 123.331 74.8976 123.331 73.239C123.331 71.5803 121.987 70.2357 120.328 70.2357C118.669 70.2357 117.325 71.5803 117.325 73.239C117.325 74.8976 118.669 76.2422 120.328 76.2422Z" fill="black"/>
<path d="M134.994 76.2422H131.991C130.289 76.2422 128.988 74.9408 128.988 73.239C128.988 71.5371 130.289 70.2357 131.991 70.2357H134.994V76.2422Z" fill="black"/>
<path d="M140.826 70.2357H134.82V76.2422H140.826V70.2357Z" fill="black"/>
<path d="M143.654 76.2422H140.651V70.2357H146.658V73.239C146.658 74.9408 145.356 76.2422 143.654 76.2422Z" fill="black"/>
<path d="M6.70175 82.0741H0.695312V79.0708C0.695312 77.369 1.99671 76.0676 3.69853 76.0676H6.70175V82.0741Z" fill="black"/>
<path d="M9.52995 82.0741H6.52673V76.0676H9.52995C11.2318 76.0676 12.5332 77.369 12.5332 79.0708C12.5332 80.7727 11.2318 82.0741 9.52995 82.0741Z" fill="black"/>
<path d="M30.028 76.0676H24.0216V82.0741H30.028V76.0676Z" fill="black"/>
<path d="M32.8559 82.0741H29.8527V76.0676H32.8559C34.5577 76.0676 35.8591 77.369 35.8591 79.0708C35.8591 80.7727 34.5577 82.0741 32.8559 82.0741Z" fill="black"/>
<path d="M53.3534 82.0741H50.3501C48.6483 82.0741 47.3469 80.7727 47.3469 79.0708V76.0676H53.3534V82.0741Z" fill="black"/>
<path d="M59.1855 76.0676H53.1791V82.0741H59.1855V76.0676Z" fill="black"/>
<path d="M65.0161 76.0676H59.0096V82.0741H65.0161V76.0676Z" fill="black"/>
<path d="M70.848 76.0676H64.8416V82.0741H70.848V76.0676Z" fill="black"/>
<path d="M76.6795 76.0676H70.6731V82.0741H76.6795V76.0676Z" fill="black"/>
<path d="M82.5112 82.0741H76.5048V76.0676H79.508C81.2098 76.0676 82.5112 77.369 82.5112 79.0708V82.0741Z" fill="black"/>
<path d="M97.0022 82.0741C98.6609 82.0741 100.005 80.7295 100.005 79.0708C100.005 77.4122 98.6609 76.0676 97.0022 76.0676C95.3436 76.0676 93.999 77.4122 93.999 79.0708C93.999 80.7295 95.3436 82.0741 97.0022 82.0741Z" fill="black"/>
<path d="M117.5 82.0741H111.494V79.0708C111.494 77.369 112.795 76.0676 114.497 76.0676C116.199 76.0676 117.5 77.369 117.5 79.0708V82.0741Z" fill="black"/>
<path d="M129.163 82.0741H123.156V79.0708C123.156 77.369 124.458 76.0676 126.16 76.0676C127.861 76.0676 129.163 77.369 129.163 79.0708V82.0741Z" fill="black"/>
<path d="M140.826 76.0676H134.82V82.0741H140.826V76.0676Z" fill="black"/>
<path d="M6.70175 81.899H0.695312V87.9054H6.70175V81.899Z" fill="black"/>
<path d="M27.0248 87.9054C25.323 87.9054 24.0216 86.604 24.0216 84.9022V81.899H30.028V84.9022C30.028 86.604 28.7266 87.9054 27.0248 87.9054Z" fill="black"/>
<path d="M38.6869 87.9054C40.3456 87.9054 41.6901 86.5608 41.6901 84.9022C41.6901 83.2436 40.3456 81.899 38.6869 81.899C37.0283 81.899 35.6837 83.2436 35.6837 84.9022C35.6837 86.5608 37.0283 87.9054 38.6869 87.9054Z" fill="black"/>
<path d="M59.1855 81.899H53.1791V87.9054H59.1855V81.899Z" fill="black"/>
<path d="M70.848 87.9054H67.8448C66.1429 87.9054 64.8416 86.604 64.8416 84.9022V81.899H70.848V87.9054Z" fill="black"/>
<path d="M76.6795 81.899H70.6731V87.9054H76.6795V81.899Z" fill="black"/>
<path d="M82.5112 81.899H76.5048V87.9054H82.5112V81.899Z" fill="black"/>
<path d="M88.3425 81.899H82.3361V87.9054H88.3425V81.899Z" fill="black"/>
<path d="M94.1742 87.9054H88.1677V81.899H91.1709C92.8728 81.899 94.1742 83.2004 94.1742 84.9022V87.9054Z" fill="black"/>
<path d="M105.837 87.9054H99.8304V84.9022C99.8304 83.2004 101.132 81.899 102.834 81.899H105.837V87.9054Z" fill="black"/>
<path d="M111.668 81.899H105.662V87.9054H111.668V81.899Z" fill="black"/>
<path d="M117.5 81.899H111.494V87.9054H117.5V81.899Z" fill="black"/>
<path d="M123.331 81.899H117.325V87.9054H123.331V81.899Z" fill="black"/>
<path d="M126.16 87.9054H123.156V81.899H129.163V84.9022C129.163 86.604 127.861 87.9054 126.16 87.9054Z" fill="black"/>
<path d="M140.826 87.9054H137.823C136.121 87.9054 134.82 86.604 134.82 84.9022V81.899H140.826V87.9054Z" fill="black"/>
<path d="M146.658 87.9054H140.651V81.899H143.654C145.356 81.899 146.658 83.2004 146.658 84.9022V87.9054Z" fill="black"/>
<path d="M6.70175 87.7303H0.695312V93.7367H6.70175V87.7303Z" fill="black"/>
<path d="M18.3637 93.7367H12.3573V90.7335C12.3573 89.0317 13.6587 87.7303 15.3605 87.7303H18.3637V93.7367Z" fill="black"/>
<path d="M24.1964 93.7367H18.1899V87.7303H21.1932C22.895 87.7303 24.1964 89.0317 24.1964 90.7335V93.7367Z" fill="black"/>
<path d="M32.8559 93.7367C34.5145 93.7367 35.8591 92.3922 35.8591 90.7335C35.8591 89.0749 34.5145 87.7303 32.8559 87.7303C31.1972 87.7303 29.8527 89.0749 29.8527 90.7335C29.8527 92.3922 31.1972 93.7367 32.8559 93.7367Z" fill="black"/>
<path d="M47.5218 93.7367H44.5186C42.8168 93.7367 41.5154 92.4354 41.5154 90.7335C41.5154 89.0317 42.8168 87.7303 44.5186 87.7303H47.5218V93.7367Z" fill="black"/>
<path d="M53.3534 87.7303H47.3469V93.7367H53.3534V87.7303Z" fill="black"/>
<path d="M59.1855 87.7303H53.1791V93.7367H59.1855V87.7303Z" fill="black"/>
<path d="M62.0129 93.7367H59.0096V87.7303H62.0129C63.7147 87.7303 65.0161 89.0317 65.0161 90.7335C65.0161 92.4354 63.7147 93.7367 62.0129 93.7367Z" fill="black"/>
<path d="M76.6795 93.7367H73.6763C71.9745 93.7367 70.6731 92.4354 70.6731 90.7335V87.7303H76.6795V93.7367Z" fill="black"/>
<path d="M82.5112 87.7303H76.5048V93.7367H82.5112V87.7303Z" fill="black"/>
<path d="M88.3425 87.7303H82.3361V93.7367H88.3425V87.7303Z" fill="black"/>
<path d="M91.1709 93.7367H88.1677V87.7303H94.1742V90.7335C94.1742 92.4354 92.8728 93.7367 91.1709 93.7367Z" fill="black"/>
<path d="M105.837 87.7303H99.8304V93.7367H105.837V87.7303Z" fill="black"/>
<path d="M111.668 87.7303H105.662V93.7367H111.668V87.7303Z" fill="black"/>
<path d="M117.5 87.7303H111.494V93.7367H117.5V87.7303Z" fill="black"/>
<path d="M123.331 87.7303H117.325V93.7367H123.331V87.7303Z" fill="black"/>
<path d="M143.654 93.7367C141.953 93.7367 140.651 92.4354 140.651 90.7335V87.7303H146.658V90.7335C146.658 92.4354 145.356 93.7367 143.654 93.7367Z" fill="black"/>
<path d="M3.69853 99.5681C1.99671 99.5681 0.695312 98.2667 0.695312 96.5649V93.5617H6.70175V96.5649C6.70175 98.2667 5.40035 99.5681 3.69853 99.5681Z" fill="black"/>
<path d="M18.3637 99.5681H15.3605C13.6587 99.5681 12.3573 98.2667 12.3573 96.5649V93.5617H18.3637V99.5681Z" fill="black"/>
<path d="M24.1964 93.5617H18.1899V99.5681H24.1964V93.5617Z" fill="black"/>
<path d="M27.0248 99.5681H24.0216V93.5617H27.0248C28.7266 93.5617 30.028 94.8631 30.028 96.5649C30.028 98.2667 28.7266 99.5681 27.0248 99.5681Z" fill="black"/>
<path d="M38.6869 99.5681C40.3456 99.5681 41.6901 98.2235 41.6901 96.5649C41.6901 94.9063 40.3456 93.5617 38.6869 93.5617C37.0283 93.5617 35.6837 94.9063 35.6837 96.5649C35.6837 98.2235 37.0283 99.5681 38.6869 99.5681Z" fill="black"/>
<path d="M53.3534 93.5617H47.3469V99.5681H53.3534V93.5617Z" fill="black"/>
<path d="M79.508 99.5681C77.8062 99.5681 76.5048 98.2667 76.5048 96.5649V93.5617H82.5112V96.5649C82.5112 98.2667 81.2098 99.5681 79.508 99.5681Z" fill="black"/>
<path d="M100.005 99.5681H93.999V96.5649C93.999 94.8631 95.3004 93.5617 97.0022 93.5617H100.005V99.5681Z" fill="black"/>
<path d="M105.837 93.5617H99.8304V99.5681H105.837V93.5617Z" fill="black"/>
<path d="M111.668 93.5617H105.662V99.5681H111.668V93.5617Z" fill="black"/>
<path d="M117.5 93.5617H111.494V99.5681H117.5V93.5617Z" fill="black"/>
<path d="M123.331 93.5617H117.325V99.5681H123.331V93.5617Z" fill="black"/>
<path d="M131.991 99.5681C133.65 99.5681 134.994 98.2235 134.994 96.5649C134.994 94.9063 133.65 93.5617 131.991 93.5617C130.332 93.5617 128.988 94.9063 128.988 96.5649C128.988 98.2235 130.332 99.5681 131.991 99.5681Z" fill="black"/>
<path d="M53.3534 99.3937H47.3469V105.4H53.3534V99.3937Z" fill="black"/>
<path d="M59.1855 99.3937H53.1791V105.4H59.1855V99.3937Z" fill="black"/>
<path d="M65.0161 99.3937H59.0096V105.4H65.0161V99.3937Z" fill="black"/>
<path d="M70.848 99.3937H64.8416V105.4H70.848V99.3937Z" fill="black"/>
<path d="M76.6795 105.4H70.6731V99.3937H73.6763C75.3781 99.3937 76.6795 100.695 76.6795 102.397V105.4Z" fill="black"/>
<path d="M94.1742 105.4H91.1709C89.4691 105.4 88.1677 104.099 88.1677 102.397C88.1677 100.695 89.4691 99.3937 91.1709 99.3937H94.1742V105.4Z" fill="black"/>
<path d="M100.005 99.3937H93.999V105.4H100.005V99.3937Z" fill="black"/>
<path d="M123.331 99.3937H117.325V105.4H123.331V99.3937Z" fill="black"/>
<path d="M126.16 105.4H123.156V99.3937H126.16C127.861 99.3937 129.163 100.695 129.163 102.397C129.163 104.099 127.861 105.4 126.16 105.4Z" fill="black"/>
<path d="M53.3534 105.225H47.3469V111.231H53.3534V105.225Z" fill="black"/>
<path d="M59.1855 105.225H53.1791V111.231H59.1855V105.225Z" fill="black"/>
<path d="M65.0161 105.225H59.0096V111.231H65.0161V105.225Z" fill="black"/>
<path d="M70.848 105.225H64.8416V111.231H70.848V105.225Z" fill="black"/>
<path d="M76.6795 105.225H70.6731V111.231H76.6795V105.225Z" fill="black"/>
<path d="M82.5112 111.231H76.5048V105.225H79.508C81.2098 105.225 82.5112 106.526 82.5112 108.228V111.231Z" fill="black"/>
<path d="M100.005 105.225H93.999V111.231H100.005V105.225Z" fill="black"/>
<path d="M108.665 111.231C110.324 111.231 111.668 109.887 111.668 108.228C111.668 106.57 110.324 105.225 108.665 105.225C107.006 105.225 105.662 106.57 105.662 108.228C105.662 109.887 107.006 111.231 108.665 111.231Z" fill="black"/>
<path d="M123.331 105.225H117.325V111.231H123.331V105.225Z" fill="black"/>
<path d="M134.994 111.231H131.991C130.289 111.231 128.988 109.93 128.988 108.228C128.988 106.526 130.289 105.225 131.991 105.225H134.994V111.231Z" fill="black"/>
<path d="M140.826 105.225H134.82V111.231H140.826V105.225Z" fill="black"/>
<path d="M146.658 111.231H140.651V105.225H143.654C145.356 105.225 146.658 106.526 146.658 108.228V111.231Z" fill="black"/>
<path d="M53.3534 111.056H47.3469V117.063H53.3534V111.056Z" fill="black"/>
<path d="M59.1855 111.056H53.1791V117.063H59.1855V111.056Z" fill="black"/>
<path d="M65.0161 111.056H59.0096V117.063H65.0161V111.056Z" fill="black"/>
<path d="M70.848 111.056H64.8416V117.063H70.848V111.056Z" fill="black"/>
<path d="M76.6795 111.056H70.6731V117.063H76.6795V111.056Z" fill="black"/>
<path d="M82.5112 111.056H76.5048V117.063H82.5112V111.056Z" fill="black"/>
<path d="M100.005 111.056H93.999V117.063H100.005V111.056Z" fill="black"/>
<path d="M123.331 111.056H117.325V117.063H123.331V111.056Z" fill="black"/>
<path d="M126.16 117.063H123.156V111.056H126.16C127.861 111.056 129.163 112.358 129.163 114.059C129.163 115.761 127.861 117.063 126.16 117.063Z" fill="black"/>
<path d="M146.658 111.056H140.651V117.063H146.658V111.056Z" fill="black"/>
<path d="M53.3534 116.888H47.3469V122.894H53.3534V116.888Z" fill="black"/>
<path d="M59.1855 116.888H53.1791V122.894H59.1855V116.888Z" fill="black"/>
<path d="M65.0161 116.888H59.0096V122.894H65.0161V116.888Z" fill="black"/>
<path d="M67.8448 122.894H64.8416V116.888H70.848V119.891C70.848 121.593 69.5466 122.894 67.8448 122.894Z" fill="black"/>
<path d="M82.5112 116.888H76.5048V122.894H82.5112V116.888Z" fill="black"/>
<path d="M94.1742 122.894H88.1677V119.891C88.1677 118.189 89.4691 116.888 91.1709 116.888H94.1742V122.894Z" fill="black"/>
<path d="M100.005 116.888H93.999V122.894H100.005V116.888Z" fill="black"/>
<path d="M105.837 116.888H99.8304V122.894H105.837V116.888Z" fill="black"/>
<path d="M111.668 116.888H105.662V122.894H111.668V116.888Z" fill="black"/>
<path d="M117.5 116.888H111.494V122.894H117.5V116.888Z" fill="black"/>
<path d="M123.331 116.888H117.325V122.894H123.331V116.888Z" fill="black"/>
<path d="M134.994 122.894H128.988V119.891C128.988 118.189 130.289 116.888 131.991 116.888H134.994V122.894Z" fill="black"/>
<path d="M140.826 116.888H134.82V122.894H140.826V116.888Z" fill="black"/>
<path d="M146.658 116.888H140.651V122.894H146.658V116.888Z" fill="black"/>
<path d="M53.3534 122.719H47.3469V128.726H53.3534V122.719Z" fill="black"/>
<path d="M82.5112 122.719H76.5048V128.726H82.5112V122.719Z" fill="black"/>
<path d="M88.3425 122.719H82.3361V128.726H88.3425V122.719Z" fill="black"/>
<path d="M91.1709 128.726H88.1677V122.719H94.1742V125.722C94.1742 127.424 92.8728 128.726 91.1709 128.726Z" fill="black"/>
<path d="M105.837 128.726H102.834C101.132 128.726 99.8304 127.424 99.8304 125.722V122.719H105.837V128.726Z" fill="black"/>
<path d="M108.665 128.726H105.662V122.719H111.668V125.722C111.668 127.424 110.367 128.726 108.665 128.726Z" fill="black"/>
<path d="M123.331 128.726H120.328C118.626 128.726 117.325 127.424 117.325 125.722V122.719H123.331V128.726Z" fill="black"/>
<path d="M129.163 122.719H123.156V128.726H129.163V122.719Z" fill="black"/>
<path d="M134.994 122.719H128.988V128.726H134.994V122.719Z" fill="black"/>
<path d="M140.826 122.719H134.82V128.726H140.826V122.719Z" fill="black"/>
<path d="M146.658 122.719H140.651V128.726H146.658V122.719Z" fill="black"/>
<path d="M53.3534 128.551H47.3469V134.557H53.3534V128.551Z" fill="black"/>
<path d="M65.0161 134.557H62.0129C60.311 134.557 59.0096 133.256 59.0096 131.554C59.0096 129.852 60.311 128.551 62.0129 128.551H65.0161V134.557Z" fill="black"/>
<path d="M67.8448 134.557H64.8416V128.551H67.8448C69.5466 128.551 70.848 129.852 70.848 131.554C70.848 133.256 69.5466 134.557 67.8448 134.557Z" fill="black"/>
<path d="M82.5112 134.557H79.508C77.8062 134.557 76.5048 133.256 76.5048 131.554V128.551H82.5112V134.557Z" fill="black"/>
<path d="M88.3425 128.551H82.3361V134.557H88.3425V128.551Z" fill="black"/>
<path d="M129.163 128.551H123.156V134.557H129.163V128.551Z" fill="black"/>
<path d="M131.991 134.557H128.988V128.551H134.994V131.554C134.994 133.256 133.693 134.557 131.991 134.557Z" fill="black"/>
<path d="M146.658 128.551H140.651V134.557H146.658V128.551Z" fill="black"/>
<path d="M50.3501 140.389C48.6483 140.389 47.3469 139.088 47.3469 137.386V134.383H53.3534V137.386C53.3534 139.088 52.052 140.389 50.3501 140.389Z" fill="black"/>
<path d="M76.6795 140.389H70.6731V137.386C70.6731 135.684 71.9745 134.383 73.6763 134.383C75.3781 134.383 76.6795 135.684 76.6795 137.386V140.389Z" fill="black"/>
<path d="M85.3393 140.389C83.6375 140.389 82.3361 139.088 82.3361 137.386V134.383H88.3425V137.386C88.3425 139.088 87.0411 140.389 85.3393 140.389Z" fill="black"/>
<path d="M100.005 140.389H97.0022C95.3004 140.389 93.999 139.088 93.999 137.386C93.999 135.684 95.3004 134.383 97.0022 134.383H100.005V140.389Z" fill="black"/>
<path d="M102.834 140.389H99.8304V134.383H102.834C104.535 134.383 105.837 135.684 105.837 137.386C105.837 139.088 104.535 140.389 102.834 140.389Z" fill="black"/>
<path d="M117.5 140.389H111.494V137.386C111.494 135.684 112.795 134.383 114.497 134.383H117.5V140.389Z" fill="black"/>
<path d="M123.331 134.383H117.325V140.389H123.331V134.383Z" fill="black"/>
<path d="M129.163 134.383H123.156V140.389H129.163V134.383Z" fill="black"/>
<path d="M146.658 134.383H140.651V140.389H146.658V134.383Z" fill="black"/>
<path d="M59.1855 146.22H56.1823C54.4805 146.22 53.1791 144.919 53.1791 143.217C53.1791 141.515 54.4805 140.214 56.1823 140.214H59.1855V146.22Z" fill="black"/>
<path d="M62.0129 146.22H59.0096V140.214H62.0129C63.7147 140.214 65.0161 141.515 65.0161 143.217C65.0161 144.919 63.7147 146.22 62.0129 146.22Z" fill="black"/>
<path d="M73.6763 146.22C71.9745 146.22 70.6731 144.919 70.6731 143.217V140.214H76.6795V143.217C76.6795 144.919 75.3781 146.22 73.6763 146.22Z" fill="black"/>
<path d="M117.5 146.22H114.497C112.795 146.22 111.494 144.919 111.494 143.217V140.214H117.5V146.22Z" fill="black"/>
<path d="M123.331 140.214H117.325V146.22H123.331V140.214Z" fill="black"/>
<path d="M129.163 140.214H123.156V146.22H129.163V140.214Z" fill="black"/>
<path d="M134.994 140.214H128.988V146.22H134.994V140.214Z" fill="black"/>
<path d="M140.826 140.214H134.82V146.22H140.826V140.214Z" fill="black"/>
<path d="M143.654 146.22H140.651V140.214H146.658V143.217C146.658 144.919 145.356 146.22 143.654 146.22Z" fill="black"/>
<path d="M13.8162 41.0784H28.6865C35.6842 41.0784 41.5157 35.2469 41.5157 28.2491V13.3788C41.5157 6.08942 35.6842 0.257935 28.3949 0.257935H13.5246C6.5268 0.257935 0.695312 6.08942 0.695312 13.0872V27.9575C0.695312 35.2469 6.5268 41.0784 13.8162 41.0784ZM35.6842 14.2535V27.0828C35.6842 31.4564 31.8938 35.2469 27.5202 35.2469H14.6909C10.0257 35.2469 6.5268 31.748 6.5268 27.0828V14.2535C6.5268 9.87989 10.3173 6.08942 14.6909 6.08942H27.5202C32.1854 6.08942 35.6842 9.58832 35.6842 14.2535Z" fill="black"/>
<path d="M118.783 41.0784H133.653C140.651 41.0784 146.482 35.2469 146.482 28.2491V13.3788C146.482 6.08948 140.651 0.257996 133.361 0.257996H118.491C111.493 0.257996 105.662 6.08948 105.662 13.0873V27.9576C105.662 35.2469 111.493 41.0784 118.783 41.0784ZM140.651 14.2536V27.0828C140.651 31.4565 136.86 35.2469 132.487 35.2469H119.657C114.992 35.2469 111.493 31.748 111.493 27.0828V14.2536C111.493 9.87995 115.284 6.08948 119.657 6.08948H132.487C137.152 6.08948 140.651 9.58838 140.651 14.2536Z" fill="black"/>
<path d="M13.8162 146.045H28.6865C35.6842 146.045 41.5157 140.214 41.5157 133.216V118.346C41.5157 111.056 35.6842 105.225 28.3949 105.225H13.5246C6.5268 105.225 0.695312 111.056 0.695312 118.054V132.924C0.695312 140.214 6.5268 146.045 13.8162 146.045ZM35.6842 119.22V132.05C35.6842 136.423 31.8938 140.214 27.5202 140.214H14.6909C10.0257 140.214 6.5268 136.715 6.5268 132.05V119.22C6.5268 114.847 10.3173 111.056 14.6909 111.056H27.5202C32.1854 111.056 35.6842 114.555 35.6842 119.22Z" fill="black"/>
<path d="M29.8518 11.921H12.3573V29.4154H29.8518V11.921Z" fill="black"/>
<path d="M134.819 11.921H117.325V29.4154H134.819V11.921Z" fill="black"/>
<path d="M29.8518 116.888H12.3573V134.382H29.8518V116.888Z" fill="black"/>
</svg>
