<svg width="117" height="27" viewBox="0 0 117 27" fill="none" xmlns="http://www.w3.org/2000/svg">
<path d="M8.74974 7.46151C9.43855 9.09301 10.1915 10.9245 10.117 10.9604C10.3242 10.8615 11.0471 8.70971 11.2146 8.3027C11.2469 8.2235 11.2971 8.15065 11.33 8.07145C11.8878 6.73827 12.6211 5.11486 13.2106 3.76723C13.6788 2.69768 14.0483 1.58188 14.6211 0.55974H17.9121L19.0675 14.9206C19.1968 15.2594 20.3371 15.0553 20.3371 15.1206V17.894C19.2141 17.7668 16.6708 18.3102 16.1217 17.0857C15.6523 16.0381 15.6985 12.7017 15.6015 11.3657C15.4721 9.57922 15.2325 7.79105 15.2551 5.99132L11.5483 14.8755H8.80286C8.76302 14.8674 7.78841 12.3705 7.5488 11.8935C7.00548 10.8124 6.5355 9.70468 6.06898 8.58888C5.72024 7.75636 5.11861 6.90766 5.03663 5.99132C5.19136 7.71589 4.86688 9.47111 4.74851 11.1911C4.70059 11.8825 4.63304 13.3868 4.63304 13.3868C4.5499 14.4275 4.5805 15.8971 4.35301 16.862C4.26987 17.2141 3.61281 17.8934 3.30507 17.8934H0.012862C0.00824299 17.3731 -0.0142747 15.1507 0.0140168 15.1206C0.106397 15.0224 1.14683 15.3114 1.2675 14.931L2.43785 0.55974H5.7289C6.39346 2.023 7.04417 3.49204 7.68332 4.96686C7.74915 5.11833 8.23125 6.23356 8.74974 7.46151Z" fill="#2C47EB"/>
<path d="M92.5062 0.26013C97.3222 0.485603 100.972 4.43311 101.056 9.22122C101.146 14.3267 96.7205 18.4488 91.6379 18.1297C83.1631 17.5978 80.1434 5.95418 87.4946 1.51757C89.0645 0.57001 90.807 0.180347 92.5062 0.26013ZM91.5611 3.25198C84.8999 3.94227 85.009 14.606 91.7597 15.1194C99.7067 15.7241 99.8355 2.3946 91.5611 3.25198Z" fill="#2C47EB"/>
<path d="M113.295 0.906492C113.347 0.817459 113.527 0.481563 113.549 0.468844C113.718 0.369983 116.807 0.433578 116.981 0.571752C117.028 0.609909 116.971 0.744614 116.989 0.790865C116.654 1.13486 116.396 1.67194 116.161 2.09976C114.902 4.38802 113.827 6.83584 112.148 8.83792C112.543 9.36403 112.884 9.69934 113.219 10.2844C113.927 11.521 114.446 12.9016 115.174 14.1111C115.735 15.0448 115.606 15.2286 116.99 15.1205V17.7782H114.045C113.812 17.7782 113.124 17.1203 112.967 16.8925C111.843 15.2523 111.142 12.6559 110.083 10.9955C109.925 10.7475 109.491 10.2665 109.195 10.2665H107.405V17.7782L104.287 17.8944L104.296 4.18567C104.357 4.02669 104.188 3.86828 104.172 3.79485C104.143 3.65726 104.255 3.42485 104.105 3.31963C103.816 3.11728 103.033 3.2595 102.671 3.2173V0.559611H106.424C106.553 0.559611 107.23 1.03195 107.29 1.13717C107.367 1.27129 107.397 1.59794 107.41 1.76733C107.556 3.64569 107.292 5.71079 107.405 7.60881H109.08C109.454 7.60881 109.825 7.36657 110.042 7.06883C110.88 5.91372 111.697 3.84804 112.371 2.52411C112.513 2.24487 112.915 1.96563 112.948 1.48405C113.177 1.34645 113.195 1.07531 113.295 0.906492Z" fill="#2C47EB"/>
<path d="M79.1897 2.67858C84.3884 7.86965 81.3854 17.4418 73.8576 18.1234C64.9157 18.9334 60.452 7.90029 67.164 2.18023C70.4597 -0.62893 76.1244 -0.382067 79.1897 2.67858ZM72.2773 3.25267C65.6807 3.82386 65.5878 14.4991 72.3731 15.1062C80.3508 15.8202 80.595 2.53231 72.2773 3.25267Z" fill="#2C47EB"/>
<path d="M42.2192 0.55974C42.6159 0.607147 43.4779 0.930903 43.8572 1.11591C46.9526 2.62484 47.0115 6.89263 44.24 8.76289C46.8983 9.69543 47.5657 12.8624 46.374 15.234C45.7528 16.4694 44.3093 17.321 42.9929 17.6286C41.8116 17.9049 37.244 17.946 35.991 17.7714C35.8536 17.7523 35.4668 17.606 35.3796 17.5159C35.3513 17.4864 35.0014 16.8365 35.0014 16.7961V3.218H33.3848V0.55974H42.2186H42.2192ZM41.4109 3.218C40.4599 3.05959 39.1175 3.33537 38.1198 3.218V7.60952H41.2954C41.4836 7.60952 42.1857 7.26148 42.352 7.10654C43.4768 6.05665 43.0957 3.49898 41.4109 3.218ZM38.1198 10.1516V14.4853C38.1198 14.5674 38.285 15.0542 38.423 15.1068C39.6684 14.9802 41.3347 15.4536 42.4363 14.8761C43.9306 14.0921 44.0726 11.4425 42.6626 10.5175C42.5622 10.4516 41.9242 10.1522 41.8728 10.1522H38.1198V10.1516Z" fill="#2C47EB"/>
<path d="M57.5773 0.55974C58.646 0.686352 60.127 1.58766 60.8008 2.41844C62.2725 4.23321 62.2668 7.47712 60.6963 9.22829C60.1853 9.79834 59.493 9.93015 59.0207 10.4967C59.418 10.4967 59.6149 10.8557 59.8077 11.1552C60.1951 11.7565 61.5595 15.0253 61.9896 15.1178C62.1738 15.1576 63.0624 15.0675 63.0624 15.1206V17.894H61.157C61.034 17.894 60.2505 17.7413 60.0906 17.6899C59.7869 17.5922 59.4584 17.2667 59.2546 17.0239C58.258 15.837 57.6021 13.4117 56.6922 12.0768C56.6154 11.9646 56.1211 11.4223 56.0761 11.4223H53.4779V17.894C53.393 17.9246 53.3399 17.7783 53.3047 17.7783H50.3601V3.218H48.7434V0.55974H57.5773ZM53.4779 8.64958H56.769C56.8169 8.64958 57.538 8.30039 57.6298 8.23968C58.7823 7.47481 58.918 4.85181 57.9289 3.90598C57.7037 3.69034 56.8082 3.21743 56.538 3.21743H53.6511C53.639 3.21743 53.4779 3.37873 53.4779 3.39087V8.649V8.64958Z" fill="#2C47EB"/>
<path d="M29.7297 6.8764C29.9376 7.13252 30.9422 7.85403 30.9382 8.22172C30.5231 9.27682 30.0918 10.3458 29.7523 11.4275C29.5432 12.0923 29.1085 13.3116 29.019 13.9383C28.9843 14.1823 28.9947 14.3239 29.1125 14.5419C27.6258 14.025 26.3544 14.0112 24.8405 14.4274C24.6506 12.2369 23.598 10.2076 22.9883 8.13558C23.0264 7.86444 23.7724 7.25104 23.9883 6.98278C24.587 6.23872 25.2978 5.31717 25.7424 4.41008C26.1315 3.6163 26.482 1.95821 26.8602 1.36851C26.8902 1.32168 26.997 1.21704 27.0322 1.25346C27.4797 3.16189 28.4924 5.35244 29.7292 6.8764H29.7297Z" fill="#2C47EB"/>
<path d="M27.8425 25.0015C27.7201 25.3993 26.0503 25.0784 25.6669 24.983C21.9024 24.0435 20.6374 19.234 23.3973 16.5087C24.4897 15.4299 26.5509 14.6835 28.0313 15.2235C28.1191 15.2553 28.2709 15.2154 28.1878 15.4085C28.1583 15.4767 27.4793 16.1456 27.3754 16.2139C27.1577 16.3561 26.5723 16.4653 26.5723 16.5081V18.9351H27.8425V25.0021V25.0015Z" fill="#2C47EB"/>
<path d="M28.9972 24.5974V18.0101H27.7264C27.4591 16.7544 28.2778 17.0724 28.8852 16.4544C29.2853 16.0473 29.0625 15.6531 29.6566 15.9051C31.3835 16.6376 32.0856 19.3317 31.8535 21.043C31.6664 22.423 30.3691 24.2534 28.9966 24.5974H28.9972Z" fill="#2C47EB"/>
<path d="M22.1825 9.57402C22.2472 9.6353 22.3979 10.4262 22.4735 10.6135C23.0798 12.1167 23.3344 13.1995 23.8044 14.6934C23.8465 14.8275 24.0705 14.7344 24.0319 14.8316C23.242 15.3201 22.6993 16.0069 22.0786 16.6648C21.9868 16.762 21.9995 16.7706 21.8396 16.7383C21.4481 15.3675 20.5636 14.2419 19.757 13.1001C20.015 12.5294 20.3955 12.0438 20.7304 11.5229C20.8823 11.2865 20.9931 11.1269 21.1432 10.9066C21.3973 10.5331 21.6519 10.0608 21.9198 9.72028C21.9781 9.64628 22.003 9.40404 22.1825 9.57459V9.57402Z" fill="#2C47EB"/>
<path d="M29.6912 14.8882L30.0445 14.7009L31.074 11.2477L31.8252 9.69076C31.992 9.75552 32.9828 11.2043 33.1577 11.4778C33.3621 11.7969 34.1127 12.8763 34.033 13.1602C33.9718 13.377 33.0111 14.6517 32.7888 15.0437C32.477 15.5918 32.2692 16.1971 31.9424 16.7371C31.2345 16.0745 30.6323 15.2432 29.6917 14.8888L29.6912 14.8882Z" fill="#2C47EB"/>
<path d="M38.8126 24.7123C33.9164 24.8464 34.9557 18.0938 39.1601 19.1073C40.0776 19.3281 40.4604 19.4548 39.965 20.4364C38.8992 19.9583 37.6699 19.623 36.9124 20.7891C36.3564 21.6447 36.6151 23.3034 37.6509 23.6214C38.1751 23.7821 39.0782 23.7457 39.5066 23.3861C40.4471 22.5969 39.3455 22.6917 39.2785 22.6281C39.2254 22.5778 39.3045 21.8847 39.2733 21.7077L40.6584 21.8251L40.6602 24.5984C40.394 24.6152 40.1169 24.5741 39.8513 24.5978C40.0089 23.8827 39.1971 24.5539 38.812 24.7135L38.8126 24.7123Z" fill="#2C47EB"/>
<path d="M93.0863 24.3663V26.0995C93.0863 26.1544 92.047 26.2909 92.047 26.0417V21.5924C92.047 21.5299 91.3033 21.6259 91.5845 20.6673C91.9673 20.6645 92.3518 20.6361 92.7277 20.7413C92.9922 20.8153 92.9864 21.02 93.0285 21.0177C93.2629 21.0038 93.398 20.6841 93.6567 20.6038C96.9264 19.5891 96.7041 26.3175 93.0857 24.3657L93.0863 24.3663ZM93.6296 21.5016C92.8536 21.7334 92.7641 23.7002 93.8669 23.8841C95.323 24.1263 95.517 20.9379 93.6296 21.5016Z" fill="#2C47EB"/>
<path d="M85.5803 20.7835C85.9313 20.51 86.2183 20.4886 86.6704 20.5597C88.8136 20.8962 88.4851 24.779 86.3349 24.7183C85.9209 24.7067 85.619 24.4246 85.2338 24.3662V26.0994H84.1946V21.5923C84.1946 21.5299 83.4509 21.6258 83.7321 20.6673C84.1132 20.6881 84.5075 20.6389 84.8874 20.6673C85.1813 21.4894 85.2748 21.0205 85.5803 20.7829V20.7835ZM86.8216 23.6429C87.3205 23.1775 87.2604 21.6935 86.4221 21.5021C84.8337 21.1385 84.7413 23.7643 86.0121 23.8806C86.1911 23.8967 86.7033 23.7534 86.8216 23.6429Z" fill="#2C47EB"/>
<path d="M77.6972 20.5805C80.7389 20.055 81.2325 24.4691 78.3474 24.7032C75.4518 24.9385 75.0211 21.043 77.6972 20.5805ZM77.1788 23.5296C77.2659 23.6227 77.9732 23.9106 78.132 23.9106C79.5853 23.9129 79.77 21.1743 77.7931 21.4836C76.9403 21.6165 76.6966 23.0145 77.1788 23.5296Z" fill="#2C47EB"/>
<path d="M44.8174 21.5922C44.6776 21.4622 44.2296 21.9715 44.3497 20.9511C44.434 20.2365 45.1707 20.8378 45.7418 20.6666C45.7573 21.1407 45.6638 23.5209 45.964 23.7371C46.3878 24.043 47.4733 23.3821 47.4733 22.9202V20.6666H48.5126V23.6134C48.5126 23.6689 49.1108 24.1534 48.8596 24.5962C48.6523 24.5615 47.6321 24.6431 47.5882 24.5968C47.5362 24.5425 47.7147 24.0042 47.4173 24.1343C47.3093 24.1817 47.1731 24.4193 46.9808 24.5072C46.5403 24.7084 45.6448 24.7333 45.2319 24.4696C45.1338 24.4066 44.8168 23.8996 44.8168 23.8447C44.8168 23.5319 44.8994 21.668 44.8168 21.5911L44.8174 21.5922Z" fill="#2C47EB"/>
<path d="M72.9356 19.1657C73.2428 19.2605 73.065 20.2751 73.1094 20.5532C72.9403 20.5255 72.2214 20.592 72.1845 20.5532C72.1423 20.5093 72.2278 20.0179 72.1856 19.9739C72.1481 19.9346 71.431 20.0028 71.2612 19.9745V24.5973H70.222V19.9745C69.3484 19.6687 69.3259 20.4625 69.1105 20.5382C68.8951 20.6139 68.5112 20.5203 68.2583 20.5532L68.3744 19.1663H72.9356V19.1657Z" fill="#2C47EB"/>
<path d="M103.249 22.7486C102.332 22.8341 101.508 22.8341 100.592 22.7486C100.544 24.2598 102.097 23.9355 103.016 23.4412C103.518 24.5662 102.225 24.7963 101.355 24.6992C100.486 24.6021 99.6907 24.0748 99.5637 23.1423C99.133 19.977 103.541 19.5387 103.249 22.748L103.249 22.7486ZM102.06 21.5125C101.578 21.1269 100.54 21.3298 100.597 22.1016C100.687 22.4213 102.023 22.0964 102.324 22.0536C102.374 21.9825 102.135 21.5726 102.06 21.5125Z" fill="#2C47EB"/>
<path d="M115.273 21.8067C115.215 21.7535 115.295 21.4546 115.071 21.3754C114.666 21.232 114.006 21.2968 114.093 21.8674C114.142 22.1801 116.292 22.1697 116.189 23.6133C116.104 24.7939 114.865 24.7621 113.981 24.5464C113.555 24.4424 113.089 24.3285 113.209 23.8781C113.488 22.8415 114.082 24.1458 114.945 23.8799C116.057 23.5376 114.049 22.8502 113.835 22.7276C112.132 21.7529 113.861 20.0029 115.555 20.6602C116.027 20.8435 116.445 21.7223 115.892 21.8229C115.774 21.8442 115.326 21.8552 115.273 21.8067Z" fill="#2C47EB"/>
<path d="M58.0971 21.4772C58.0572 21.4402 57.675 21.5171 57.634 21.4778C57.6046 21.45 57.6046 20.695 57.634 20.6673C57.6767 20.6274 58.0538 20.7118 58.0971 20.6684C58.1173 20.6476 58.0942 20.266 58.1508 20.0874C58.4412 19.1705 59.1681 19.1375 60.0007 19.0491C60.0902 19.0583 60.0873 19.9376 60.055 19.9706C60.018 20.0076 59.242 20.0088 59.1364 20.3811C59.1877 20.8511 59.6364 20.469 59.9441 20.5522C59.958 21.4761 60.1468 21.5663 59.1364 21.4772V24.5974H58.0971C58.011 24.1933 58.2114 21.5836 58.0971 21.4772Z" fill="#2C47EB"/>
<path d="M53.8245 19.1657V23.7885C53.8245 23.844 54.5007 23.7347 54.287 24.5973C54.0266 24.5695 52.7853 24.706 52.7853 24.4238V19.9745C52.7853 19.9514 52.3597 20.0104 52.3239 19.9739C52.2956 19.945 52.3055 19.3212 52.2079 19.1657H53.8245Z" fill="#2C47EB"/>
<path d="M107.29 21.5923C107.25 21.5553 106.868 21.6328 106.827 21.5929C106.787 21.5553 106.756 20.6256 107.01 20.5655C107.059 20.554 107.978 20.665 108.026 20.6811C108.259 20.7592 108.145 21.0211 108.272 21.1315C108.646 21.1541 109.615 19.9539 109.723 20.954C109.812 21.7802 109.324 21.5015 108.848 21.8224C108.681 21.934 108.329 22.404 108.329 22.5745V24.5969H107.29C107.207 24.2055 107.399 21.6946 107.29 21.5923Z" fill="#2C47EB"/>
<path d="M4.29468 23.3105V23.0064L4.68325 22.6289C5.61745 21.7386 6.03951 21.2651 6.04529 20.7124C6.04529 20.3407 5.86515 19.9967 5.31895 19.9967C4.98695 19.9967 4.71097 20.1655 4.54237 20.3066L4.38475 19.9574C4.63822 19.7435 4.9985 19.5856 5.42056 19.5856C6.20868 19.5856 6.54068 20.1268 6.54068 20.6505C6.54068 21.327 6.05106 21.8739 5.27968 22.6174L4.98695 22.8879V22.8995H6.63075V23.3111H4.29468V23.3105Z" fill="#2C47EB"/>
<path d="M9.61349 21.439C9.61349 22.6843 9.15217 23.3723 8.34153 23.3723C7.62674 23.3723 7.14232 22.7016 7.13135 21.4899C7.13135 20.2613 7.66023 19.5849 8.40331 19.5849C9.1464 19.5849 9.61349 20.2723 9.61349 21.439ZM7.62674 21.4956C7.62674 22.4484 7.91947 22.989 8.36982 22.989C8.87618 22.989 9.11868 22.3969 9.11868 21.4615C9.11868 20.5261 8.88773 19.9682 8.3756 19.9682C7.94199 19.9682 7.62674 20.4978 7.62674 21.4956Z" fill="#2C47EB"/>
<path d="M10.0695 23.3104V23.0063L10.458 22.6288C11.3922 21.7385 11.8143 21.265 11.8201 20.7123C11.8201 20.3406 11.6399 19.9966 11.0937 19.9966C10.7617 19.9966 10.4857 20.1654 10.3172 20.3065L10.1595 19.9573C10.413 19.7434 10.7733 19.5855 11.1953 19.5855C11.9835 19.5855 12.3155 20.1267 12.3155 20.6504C12.3155 21.3269 11.8258 21.8738 11.0545 22.6173L10.7617 22.8878V22.8994H12.4055V23.311H10.0695V23.3104Z" fill="#2C47EB"/>
<path d="M15.1409 20.0637H13.7448L13.604 21.0049C13.6883 20.9939 13.7674 20.9823 13.9025 20.9823C14.1836 20.9823 14.4654 21.0442 14.6906 21.1795C14.9775 21.3431 15.2143 21.6587 15.2143 22.1207C15.2143 22.8364 14.6455 23.3718 13.8522 23.3718C13.4527 23.3718 13.1149 23.259 12.9406 23.1463L13.0641 22.7688C13.216 22.8589 13.5145 22.9717 13.8465 22.9717C14.3136 22.9717 14.7131 22.6676 14.7131 22.1767C14.7073 21.7033 14.3921 21.365 13.6605 21.365C13.4521 21.365 13.2893 21.3876 13.1542 21.4044L13.3903 19.6457H15.1409V20.0625V20.0637Z" fill="#2C47EB"/>
</svg>
