<svg width="24" height="26" viewBox="0 0 24 26" fill="none" xmlns="http://www.w3.org/2000/svg">
<path d="M12 2.275C12.5909 2.275 13.1761 2.4011 13.7221 2.64609C14.268 2.89108 14.7641 3.25017 15.182 3.70285C15.5998 4.15554 15.9313 4.69296 16.1575 5.28442C16.3836 5.87588 16.5 6.50981 16.5 7.15V11.05C16.5 12.3429 16.0259 13.5829 15.182 14.4971C14.3381 15.4114 13.1935 15.925 12 15.925C10.8065 15.925 9.66193 15.4114 8.81802 14.4971C7.97411 13.5829 7.5 12.3429 7.5 11.05V7.15C7.5 5.85707 7.97411 4.61709 8.81802 3.70285C9.66193 2.78861 10.8065 2.275 12 2.275ZM3.9495 12.025H5.763C5.98106 13.6482 6.73128 15.132 7.87641 16.2051C9.02154 17.2782 10.485 17.8687 11.9991 17.8687C13.5132 17.8687 14.9767 17.2782 16.1218 16.2051C17.2669 15.132 18.0171 13.6482 18.2352 12.025H20.0496C19.845 14.003 19.026 15.8469 17.7269 17.2544C16.4278 18.6619 14.7258 19.5494 12.9 19.7714V23.725H11.1V19.7714C9.27402 19.5496 7.57181 18.6622 6.27256 17.2547C4.97331 15.8472 4.15417 14.0031 3.9495 12.025Z" fill="#0A0D14"/>
</svg>
