<svg width="48" height="48" viewBox="0 0 48 48" fill="none" xmlns="http://www.w3.org/2000/svg">
<rect x="1" y="1.5022" width="45.4026" height="45.4026" rx="9.99791" fill="white" fill-opacity="0.1"/>
<rect x="0.642932" y="1.14513" width="46.1167" height="46.1167" rx="10.355" stroke="#C3C3C3" stroke-opacity="0.59" stroke-width="0.714136"/>
<path d="M30.457 8.80432C35.3885 8.80432 38.702 12.2536 38.702 17.4027V29.3977C38.702 29.6182 38.6625 29.8154 38.6508 30.0286C38.6435 30.1527 38.645 30.2768 38.6348 30.401C38.6289 30.4564 38.6129 30.5076 38.607 30.563C38.5588 31.0216 38.4844 31.4597 38.3807 31.8846C38.3544 31.9985 38.3237 32.1081 38.2931 32.2191C38.1762 32.6309 38.039 33.0237 37.874 33.399C37.8258 33.5041 37.7732 33.6049 37.7235 33.7086C37.5454 34.0664 37.3526 34.4095 37.1292 34.7279L36.9131 35.0083C36.6809 35.3091 36.4385 35.5968 36.1639 35.8582C36.0748 35.9429 35.9741 36.0159 35.8806 36.0962C35.5988 36.3386 35.3111 36.5708 34.9942 36.7694C34.8803 36.841 34.7547 36.8935 34.6379 36.9578C34.3152 37.1359 33.9895 37.3097 33.6347 37.4441C33.4886 37.4996 33.3265 37.5288 33.1747 37.577C32.8256 37.685 32.481 37.7975 32.1057 37.8617C32.0113 37.8783 31.9141 37.8899 31.8154 37.8991L31.2164 37.942C30.9623 37.961 30.7213 38.0107 30.457 38.0107H17.7289C17.1798 38.0107 16.6555 37.9552 16.1488 37.8719C16.1298 37.869 16.1123 37.8661 16.0948 37.8632C14.119 37.5229 12.479 36.5693 11.3298 35.1309C11.3166 35.1309 11.3166 35.1163 11.3035 35.1032C10.1484 33.6487 9.49561 31.6933 9.49561 29.3977V17.4027C9.49561 12.2536 12.812 8.80432 17.7289 8.80432H30.457ZM30.457 10.8415H17.7289C13.9656 10.8415 11.5342 13.4218 11.5342 17.4027V29.3977C11.5342 30.5149 11.7416 31.5123 12.0964 32.3753C12.1417 32.3213 14.9703 28.872 14.9835 28.8603C15.994 27.7067 17.891 25.9864 20.3808 27.0276C20.9795 27.2759 21.5053 27.6249 21.9872 27.9316C22.8239 28.4909 23.316 28.7537 23.8272 28.7099C24.0389 28.6807 24.2375 28.6179 24.4259 28.5011C25.2407 27.9987 27.5437 24.64 27.6824 24.4575C29.2741 22.3838 31.7275 21.8289 33.7719 23.0556C33.9092 23.1373 34.4696 23.5218 35.0771 23.9547L35.5357 24.2846C35.9913 24.6157 36.4206 24.9383 36.6648 25.1453V17.4027C36.6648 13.4218 34.2334 10.8415 30.457 10.8415ZM18.9574 14.645C19.9762 14.645 20.8988 15.0734 21.5597 15.7569C22.2233 16.4165 22.6393 17.3255 22.6393 18.3176C22.6393 20.2963 20.9837 21.9466 18.9956 21.9466C17.2481 21.9466 15.758 20.6698 15.4241 19.0167C15.3689 18.7686 15.3378 18.5135 15.3378 18.25C15.3378 16.2572 16.9566 14.645 18.9574 14.645Z" fill="#A6B3FF"/>
<path d="M30.457 8.80432C35.3885 8.80432 38.702 12.2536 38.702 17.4027V29.3977C38.702 29.6182 38.6625 29.8154 38.6508 30.0286C38.6435 30.1527 38.645 30.2768 38.6348 30.401C38.6289 30.4564 38.6129 30.5076 38.607 30.563C38.5588 31.0216 38.4844 31.4597 38.3807 31.8846C38.3544 31.9985 38.3237 32.1081 38.2931 32.2191C38.1762 32.6309 38.039 33.0237 37.874 33.399C37.8258 33.5041 37.7732 33.6049 37.7235 33.7086C37.5454 34.0664 37.3526 34.4095 37.1292 34.7279L36.9131 35.0083C36.6809 35.3091 36.4385 35.5968 36.1639 35.8582C36.0748 35.9429 35.9741 36.0159 35.8806 36.0962C35.5988 36.3386 35.3111 36.5708 34.9942 36.7694C34.8803 36.841 34.7547 36.8935 34.6379 36.9578C34.3152 37.1359 33.9895 37.3097 33.6347 37.4441C33.4886 37.4996 33.3265 37.5288 33.1747 37.577C32.8256 37.685 32.481 37.7975 32.1057 37.8617C32.0113 37.8783 31.9141 37.8899 31.8154 37.8991L31.2164 37.942C30.9623 37.961 30.7213 38.0107 30.457 38.0107H17.7289C17.1798 38.0107 16.6555 37.9552 16.1488 37.8719C16.1298 37.869 16.1123 37.8661 16.0948 37.8632C14.119 37.5229 12.479 36.5693 11.3298 35.1309C11.3166 35.1309 11.3166 35.1163 11.3035 35.1032C10.1484 33.6487 9.49561 31.6933 9.49561 29.3977V17.4027C9.49561 12.2536 12.812 8.80432 17.7289 8.80432H30.457ZM30.457 10.8415H17.7289C13.9656 10.8415 11.5342 13.4218 11.5342 17.4027V29.3977C11.5342 30.5149 11.7416 31.5123 12.0964 32.3753C12.1417 32.3213 14.9703 28.872 14.9835 28.8603C15.994 27.7067 17.891 25.9864 20.3808 27.0276C20.9795 27.2759 21.5053 27.6249 21.9872 27.9316C22.8239 28.4909 23.316 28.7537 23.8272 28.7099C24.0389 28.6807 24.2375 28.6179 24.4259 28.5011C25.2407 27.9987 27.5437 24.64 27.6824 24.4575C29.2741 22.3838 31.7275 21.8289 33.7719 23.0556C33.9092 23.1373 34.4696 23.5218 35.0771 23.9547L35.5357 24.2846C35.9913 24.6157 36.4206 24.9383 36.6648 25.1453V17.4027C36.6648 13.4218 34.2334 10.8415 30.457 10.8415ZM18.9574 14.645C19.9762 14.645 20.8988 15.0734 21.5597 15.7569C22.2233 16.4165 22.6393 17.3255 22.6393 18.3176C22.6393 20.2963 20.9837 21.9466 18.9956 21.9466C17.2481 21.9466 15.758 20.6698 15.4241 19.0167C15.3689 18.7686 15.3378 18.5135 15.3378 18.25C15.3378 16.2572 16.9566 14.645 18.9574 14.645Z" fill="url(#paint0_linear_425_1505)"/>
<defs>
<linearGradient id="paint0_linear_425_1505" x1="9.49561" y1="23.4075" x2="38.702" y2="23.4075" gradientUnits="userSpaceOnUse">
<stop stop-color="#5433FF"/>
<stop offset="0.5" stop-color="#AE91FF"/>
<stop offset="1" stop-color="#F0EAFF"/>
</linearGradient>
</defs>
</svg>
