<svg width="97" height="16" viewBox="0 0 97 16" fill="none" xmlns="http://www.w3.org/2000/svg">
<g clip-path="url(#clip0_425_2114)">
<path d="M5.80043 0.555851C2.90536 0.555851 0.550049 2.91114 0.550049 5.8062V10.1934C0.550049 13.0885 2.90536 15.4438 5.80043 15.4438H10.1877C13.0827 15.4438 15.438 13.0885 15.438 10.1934V8.24625L13.1018 9.63327V10.1934C13.1018 11.8003 11.7945 13.1076 10.1877 13.1076H5.80044C4.19357 13.1076 2.88626 11.8003 2.88626 10.1934V5.8062C2.88626 4.19932 4.19357 2.89206 5.80044 2.89206H10.1877C11.2443 2.89206 12.2287 3.48046 12.7388 4.40201L7.92689 7.31864L6.58725 5.10848L6.07165 5.421C6.07199 5.42156 6.07241 5.42208 6.07276 5.42264C6.22634 5.68021 6.13594 6.01717 5.87083 6.17526C5.60756 6.33226 5.27116 6.25358 5.11611 6.00018L4.58938 6.31943L7.13996 10.5275L15.4304 5.5024L15.4225 5.39988C15.3711 4.7288 15.1932 4.08594 14.8963 3.48545L14.8998 3.48335L14.7424 3.18754L14.7398 3.18911C13.8026 1.56034 12.0745 0.555847 10.1877 0.555847L5.80043 0.555851Z" fill="#375DFB"/>
</g>
<path d="M30.1404 12.064V14H22.2524V2.64H29.9964V4.576H24.4604V7.312H29.2444V9.104H24.4604V12.064H30.1404ZM33.5291 14L30.4411 5.616H32.6651L34.7771 12.048L36.9051 5.616H38.9371L35.8651 14H33.5291ZM43.4367 14.16C42.7647 14.16 42.1567 14.048 41.6127 13.824C41.0687 13.5893 40.6047 13.2747 40.2207 12.88C39.8367 12.4747 39.5381 12.016 39.3247 11.504C39.1221 10.9813 39.0207 10.432 39.0207 9.856C39.0207 9.056 39.1967 8.32533 39.5487 7.664C39.9114 7.00267 40.4234 6.47467 41.0847 6.08C41.7567 5.67467 42.5461 5.472 43.4527 5.472C44.3701 5.472 45.1541 5.67467 45.8047 6.08C46.4554 6.47467 46.9514 7.00267 47.2927 7.664C47.6447 8.31467 47.8207 9.01867 47.8207 9.776C47.8207 9.904 47.8154 10.0373 47.8047 10.176C47.7941 10.304 47.7834 10.4107 47.7727 10.496H41.2927C41.3354 10.9227 41.4581 11.296 41.6607 11.616C41.8741 11.936 42.1407 12.1813 42.4607 12.352C42.7914 12.512 43.1434 12.592 43.5167 12.592C43.9434 12.592 44.3434 12.4907 44.7167 12.288C45.1007 12.0747 45.3621 11.7973 45.5007 11.456L47.3407 11.968C47.1381 12.3947 46.8447 12.7733 46.4607 13.104C46.0874 13.4347 45.6447 13.696 45.1327 13.888C44.6207 14.0693 44.0554 14.16 43.4367 14.16ZM41.2447 9.136H45.6287C45.5861 8.70933 45.4634 8.34133 45.2607 8.032C45.0687 7.712 44.8127 7.46667 44.4927 7.296C44.1727 7.11467 43.8154 7.024 43.4207 7.024C43.0367 7.024 42.6847 7.11467 42.3647 7.296C42.0554 7.46667 41.7994 7.712 41.5967 8.032C41.4047 8.34133 41.2874 8.70933 41.2447 9.136ZM56.6789 14H54.5349V9.296C54.5349 8.624 54.4175 8.13333 54.1829 7.824C53.9482 7.51467 53.6229 7.36 53.2069 7.36C52.9189 7.36 52.6255 7.43467 52.3269 7.584C52.0389 7.73333 51.7775 7.94133 51.5429 8.208C51.3082 8.464 51.1375 8.76267 51.0309 9.104V14H48.8869V5.616H50.8229V7.168C51.0362 6.80533 51.3082 6.50133 51.6389 6.256C51.9695 6 52.3482 5.808 52.7749 5.68C53.2122 5.54133 53.6709 5.472 54.1509 5.472C54.6735 5.472 55.1002 5.568 55.4309 5.76C55.7722 5.94133 56.0282 6.192 56.1989 6.512C56.3802 6.82133 56.5029 7.17333 56.5669 7.568C56.6415 7.96267 56.6789 8.36267 56.6789 8.768V14ZM63.2802 13.568C63.0989 13.6427 62.8802 13.728 62.6242 13.824C62.3682 13.92 62.0909 13.9947 61.7922 14.048C61.5042 14.112 61.2109 14.144 60.9122 14.144C60.5176 14.144 60.1549 14.0747 59.8242 13.936C59.4936 13.7973 59.2269 13.5787 59.0242 13.28C58.8322 12.9707 58.7362 12.5707 58.7362 12.08V7.264H57.6322V5.616H58.7362V2.896H60.8802V5.616H62.6402V7.264H60.8802V11.36C60.8909 11.648 60.9709 11.856 61.1202 11.984C61.2696 12.112 61.4562 12.176 61.6802 12.176C61.9042 12.176 62.1229 12.1387 62.3362 12.064C62.5496 11.9893 62.7202 11.9253 62.8482 11.872L63.2802 13.568ZM73.9169 2.64V14H71.7249V9.152H66.5729V14H64.3649V2.64H66.5729V7.232H71.7249V2.64H73.9169ZM79.5861 14.16C78.9141 14.16 78.3061 14.048 77.7621 13.824C77.2181 13.5893 76.7541 13.2747 76.3701 12.88C75.9861 12.4747 75.6874 12.016 75.4741 11.504C75.2714 10.9813 75.1701 10.432 75.1701 9.856C75.1701 9.056 75.3461 8.32533 75.6981 7.664C76.0608 7.00267 76.5728 6.47467 77.2341 6.08C77.9061 5.67467 78.6954 5.472 79.6021 5.472C80.5194 5.472 81.3034 5.67467 81.9541 6.08C82.6048 6.47467 83.1008 7.00267 83.4421 7.664C83.7941 8.31467 83.9701 9.01867 83.9701 9.776C83.9701 9.904 83.9648 10.0373 83.9541 10.176C83.9434 10.304 83.9328 10.4107 83.9221 10.496H77.4421C77.4848 10.9227 77.6074 11.296 77.8101 11.616C78.0234 11.936 78.2901 12.1813 78.6101 12.352C78.9408 12.512 79.2928 12.592 79.6661 12.592C80.0928 12.592 80.4928 12.4907 80.8661 12.288C81.2501 12.0747 81.5114 11.7973 81.6501 11.456L83.4901 11.968C83.2874 12.3947 82.9941 12.7733 82.6101 13.104C82.2368 13.4347 81.7941 13.696 81.2821 13.888C80.7701 14.0693 80.2048 14.16 79.5861 14.16ZM77.3941 9.136H81.7781C81.7354 8.70933 81.6128 8.34133 81.4101 8.032C81.2181 7.712 80.9621 7.46667 80.6421 7.296C80.3221 7.11467 79.9648 7.024 79.5701 7.024C79.1861 7.024 78.8341 7.11467 78.5141 7.296C78.2048 7.46667 77.9488 7.712 77.7461 8.032C77.5541 8.34133 77.4368 8.70933 77.3941 9.136ZM86.0997 5.616L87.8597 8.24L87.9877 8.528L88.1477 8.24L89.8917 5.616H92.1477L89.2357 9.792L92.1957 14H89.9397L88.1317 11.392L87.9877 11.12L87.8597 11.392L86.0677 14H83.8117L86.7717 9.84L83.8597 5.616H86.0997Z" fill="#989898"/>
<defs>
<clipPath id="clip0_425_2114">
<rect width="16" height="16" fill="white"/>
</clipPath>
</defs>
</svg>
